<?xml version="1.0" encoding="utf-8" standalone="no"?>
<!DOCTYPE svg PUBLIC "-//W3C//DTD SVG 1.1//EN"
  "http://www.w3.org/Graphics/SVG/1.1/DTD/svg11.dtd">
<svg xmlns:xlink="http://www.w3.org/1999/xlink" width="274.9794pt" height="250.618919pt" viewBox="0 0 274.9794 250.618919" xmlns="http://www.w3.org/2000/svg" version="1.1">
 <metadata>
  <rdf:RDF xmlns:dc="http://purl.org/dc/elements/1.1/" xmlns:cc="http://creativecommons.org/ns#" xmlns:rdf="http://www.w3.org/1999/02/22-rdf-syntax-ns#">
   <cc:Work>
    <dc:type rdf:resource="http://purl.org/dc/dcmitype/StillImage"/>
    <dc:date>2026-03-27T14:36:50.185875</dc:date>
    <dc:format>image/svg+xml</dc:format>
    <dc:creator>
     <cc:Agent>
      <dc:title>Matplotlib v3.10.3, https://matplotlib.org/</dc:title>
     </cc:Agent>
    </dc:creator>
   </cc:Work>
  </rdf:RDF>
 </metadata>
 <defs>
  <style type="text/css">*{stroke-linejoin: round; stroke-linecap: butt}</style>
 </defs>
 <g id="figure_1">
  <g id="patch_1">
   <path d="M 0 250.618919 
L 274.9794 250.618919 
L 274.9794 0 
L 0 0 
z
" style="fill: #ffffff"/>
  </g>
  <g id="axes_1">
   <g id="patch_2">
    <path d="M 197.041628 191.683611 
C 186.81807 194.253462 176.14174 194.457737 165.82736 192.280846 
C 155.512981 190.103956 145.829768 185.602719 137.516657 179.120631 
C 129.203547 172.638543 122.47752 164.344792 117.851846 154.872283 
C 113.226173 145.399775 110.821588 134.995751 110.821588 124.454153 
C 110.821588 113.912556 113.226173 103.508532 117.851846 94.036023 
C 122.47752 84.563515 129.203547 76.269764 137.516657 69.787675 
C 145.829768 63.305587 155.512981 58.804351 165.82736 56.62746 
C 176.14174 54.45057 186.81807 54.654844 197.041628 57.224695 
C 190.321602 49.969101 182.55153 43.761907 173.990872 38.810386 
C 165.430215 33.858866 156.175332 30.218753 146.535266 28.011601 
C 136.895199 25.804449 126.978458 25.0551 117.116185 25.788579 
C 107.253913 26.522057 97.55712 28.730105 88.349604 32.338992 
C 79.142089 35.947879 70.527491 40.916982 62.793474 47.080372 
C 55.059456 53.243762 48.293073 60.532063 42.720269 68.701902 
C 37.147465 76.871741 32.830969 85.831157 29.914918 95.280974 
C 26.998867 104.730792 25.516085 114.564643 25.516085 124.454153 
C 25.516085 134.343663 26.998867 144.177515 29.914918 153.627332 
C 32.830969 163.07715 37.147465 172.036566 42.720269 180.206405 
C 48.293073 188.376243 55.059456 195.664544 62.793474 201.827934 
C 70.527491 207.991324 79.142089 212.960428 88.349604 216.569315 
C 97.55712 220.178202 107.253913 222.38625 117.116185 223.119728 
C 126.978458 223.853206 136.895199 223.103858 146.535266 220.896706 
C 156.175332 218.689553 165.430215 215.049441 173.990872 210.097921 
C 182.55153 205.1464 190.321602 198.939206 197.041628 191.683611 
" clip-path="url(#pa6a2f9372f)" style="fill: #3b4cc0; opacity: 0.85; stroke: #4c4c4c; stroke-width: 1.2; stroke-linejoin: miter"/>
   </g>
   <g id="patch_3">
    <path d="M 197.041628 57.224695 
C 213.976031 75.508727 223.392222 99.53268 223.392222 124.454153 
C 223.392222 149.375627 213.976031 173.399579 197.041628 191.683611 
C 212.017134 187.919283 225.313942 179.257023 234.80893 167.079948 
C 244.303917 154.902872 249.463315 139.895525 249.463315 124.454153 
C 249.463315 109.012782 244.303917 94.005435 234.80893 81.828359 
C 225.313942 69.651283 212.017134 60.989023 197.041628 57.224695 
" clip-path="url(#pa6a2f9372f)" style="fill: #fde725; opacity: 0.85; stroke: #4c4c4c; stroke-width: 1.2; stroke-linejoin: miter"/>
   </g>
   <g id="patch_4">
    <path d="M 197.041628 191.683611 
C 213.976031 173.399579 223.392222 149.375627 223.392222 124.454153 
C 223.392222 99.53268 213.976031 75.508727 197.041628 57.224695 
C 186.81807 54.654844 176.14174 54.45057 165.82736 56.62746 
C 155.512981 58.804351 145.829768 63.305587 137.516657 69.787675 
C 129.203547 76.269764 122.47752 84.563515 117.851846 94.036023 
C 113.226173 103.508532 110.821588 113.912556 110.821588 124.454153 
C 110.821588 134.995751 113.226173 145.399775 117.851846 154.872283 
C 122.47752 164.344792 129.203547 172.638543 137.516657 179.120631 
C 145.829768 185.602719 155.512981 190.103956 165.82736 192.280846 
C 176.14174 194.457737 186.81807 194.253462 197.041628 191.683611 
" clip-path="url(#pa6a2f9372f)" style="fill: #1fa187; opacity: 0.85; stroke: #4c4c4c; stroke-width: 1.2; stroke-linejoin: miter"/>
   </g>
   <g id="text_1">
    <!-- 33 -->
    <g style="fill: #222222" transform="translate(61.170086 127.489466) scale(0.11 -0.11)">
     <defs>
      <path id="DejaVuSans-33" d="M 2597 2516 
Q 3050 2419 3304 2112 
Q 3559 1806 3559 1356 
Q 3559 666 3084 287 
Q 2609 -91 1734 -91 
Q 1441 -91 1130 -33 
Q 819 25 488 141 
L 488 750 
Q 750 597 1062 519 
Q 1375 441 1716 441 
Q 2309 441 2620 675 
Q 2931 909 2931 1356 
Q 2931 1769 2642 2001 
Q 2353 2234 1838 2234 
L 1294 2234 
L 1294 2753 
L 1863 2753 
Q 2328 2753 2575 2939 
Q 2822 3125 2822 3475 
Q 2822 3834 2567 4026 
Q 2313 4219 1838 4219 
Q 1578 4219 1281 4162 
Q 984 4106 628 3988 
L 628 4550 
Q 988 4650 1302 4700 
Q 1616 4750 1894 4750 
Q 2613 4750 3031 4423 
Q 3450 4097 3450 3541 
Q 3450 3153 3228 2886 
Q 3006 2619 2597 2516 
z
" transform="scale(0.015625)"/>
     </defs>
     <use xlink:href="#DejaVuSans-33"/>
     <use xlink:href="#DejaVuSans-33" transform="translate(63.623047 0)"/>
    </g>
   </g>
   <g id="text_2">
    <!-- 5 -->
    <g style="fill: #222222" transform="translate(232.928394 127.489466) scale(0.11 -0.11)">
     <defs>
      <path id="DejaVuSans-35" d="M 691 4666 
L 3169 4666 
L 3169 4134 
L 1269 4134 
L 1269 2991 
Q 1406 3038 1543 3061 
Q 1681 3084 1819 3084 
Q 2600 3084 3056 2656 
Q 3513 2228 3513 1497 
Q 3513 744 3044 326 
Q 2575 -91 1722 -91 
Q 1428 -91 1123 -41 
Q 819 9 494 109 
L 494 744 
Q 775 591 1075 516 
Q 1375 441 1709 441 
Q 2250 441 2565 725 
Q 2881 1009 2881 1497 
Q 2881 1984 2565 2268 
Q 2250 2553 1709 2553 
Q 1456 2553 1204 2497 
Q 953 2441 691 2322 
L 691 4666 
z
" transform="scale(0.015625)"/>
     </defs>
     <use xlink:href="#DejaVuSans-35"/>
    </g>
   </g>
   <g id="text_3">
    <!-- 22 -->
    <g style="fill: #222222" transform="translate(160.108155 127.489466) scale(0.11 -0.11)">
     <defs>
      <path id="DejaVuSans-32" d="M 1228 531 
L 3431 531 
L 3431 0 
L 469 0 
L 469 531 
Q 828 903 1448 1529 
Q 2069 2156 2228 2338 
Q 2531 2678 2651 2914 
Q 2772 3150 2772 3378 
Q 2772 3750 2511 3984 
Q 2250 4219 1831 4219 
Q 1534 4219 1204 4116 
Q 875 4013 500 3803 
L 500 4441 
Q 881 4594 1212 4672 
Q 1544 4750 1819 4750 
Q 2544 4750 2975 4387 
Q 3406 4025 3406 3419 
Q 3406 3131 3298 2873 
Q 3191 2616 2906 2266 
Q 2828 2175 2409 1742 
Q 1991 1309 1228 531 
z
" transform="scale(0.015625)"/>
     </defs>
     <use xlink:href="#DejaVuSans-32"/>
     <use xlink:href="#DejaVuSans-32" transform="translate(63.623047 0)"/>
    </g>
   </g>
   <g id="text_4">
    <!-- TCC -->
    <g style="fill: #333333" transform="translate(101.071028 240.923294) scale(0.12 -0.12)">
     <defs>
      <path id="DejaVuSans-54" d="M -19 4666 
L 3928 4666 
L 3928 4134 
L 2272 4134 
L 2272 0 
L 1638 0 
L 1638 4134 
L -19 4134 
L -19 4666 
z
" transform="scale(0.015625)"/>
      <path id="DejaVuSans-43" d="M 4122 4306 
L 4122 3641 
Q 3803 3938 3442 4084 
Q 3081 4231 2675 4231 
Q 1875 4231 1450 3742 
Q 1025 3253 1025 2328 
Q 1025 1406 1450 917 
Q 1875 428 2675 428 
Q 3081 428 3442 575 
Q 3803 722 4122 1019 
L 4122 359 
Q 3791 134 3420 21 
Q 3050 -91 2638 -91 
Q 1578 -91 968 557 
Q 359 1206 359 2328 
Q 359 3453 968 4101 
Q 1578 4750 2638 4750 
Q 3056 4750 3426 4639 
Q 3797 4528 4122 4306 
z
" transform="scale(0.015625)"/>
     </defs>
     <use xlink:href="#DejaVuSans-54"/>
     <use xlink:href="#DejaVuSans-43" transform="translate(55.208984 0)"/>
     <use xlink:href="#DejaVuSans-43" transform="translate(125.033203 0)"/>
    </g>
   </g>
   <g id="text_5">
    <!-- ChIP-chip -->
    <g style="fill: #333333" transform="translate(180.142452 211.306089) scale(0.12 -0.12)">
     <defs>
      <path id="DejaVuSans-68" d="M 3513 2113 
L 3513 0 
L 2938 0 
L 2938 2094 
Q 2938 2591 2744 2837 
Q 2550 3084 2163 3084 
Q 1697 3084 1428 2787 
Q 1159 2491 1159 1978 
L 1159 0 
L 581 0 
L 581 4863 
L 1159 4863 
L 1159 2956 
Q 1366 3272 1645 3428 
Q 1925 3584 2291 3584 
Q 2894 3584 3203 3211 
Q 3513 2838 3513 2113 
z
" transform="scale(0.015625)"/>
      <path id="DejaVuSans-49" d="M 628 4666 
L 1259 4666 
L 1259 0 
L 628 0 
L 628 4666 
z
" transform="scale(0.015625)"/>
      <path id="DejaVuSans-50" d="M 1259 4147 
L 1259 2394 
L 2053 2394 
Q 2494 2394 2734 2622 
Q 2975 2850 2975 3272 
Q 2975 3691 2734 3919 
Q 2494 4147 2053 4147 
L 1259 4147 
z
M 628 4666 
L 2053 4666 
Q 2838 4666 3239 4311 
Q 3641 3956 3641 3272 
Q 3641 2581 3239 2228 
Q 2838 1875 2053 1875 
L 1259 1875 
L 1259 0 
L 628 0 
L 628 4666 
z
" transform="scale(0.015625)"/>
      <path id="DejaVuSans-2d" d="M 313 2009 
L 1997 2009 
L 1997 1497 
L 313 1497 
L 313 2009 
z
" transform="scale(0.015625)"/>
      <path id="DejaVuSans-63" d="M 3122 3366 
L 3122 2828 
Q 2878 2963 2633 3030 
Q 2388 3097 2138 3097 
Q 1578 3097 1268 2742 
Q 959 2388 959 1747 
Q 959 1106 1268 751 
Q 1578 397 2138 397 
Q 2388 397 2633 464 
Q 2878 531 3122 666 
L 3122 134 
Q 2881 22 2623 -34 
Q 2366 -91 2075 -91 
Q 1284 -91 818 406 
Q 353 903 353 1747 
Q 353 2603 823 3093 
Q 1294 3584 2113 3584 
Q 2378 3584 2631 3529 
Q 2884 3475 3122 3366 
z
" transform="scale(0.015625)"/>
      <path id="DejaVuSans-69" d="M 603 3500 
L 1178 3500 
L 1178 0 
L 603 0 
L 603 3500 
z
M 603 4863 
L 1178 4863 
L 1178 4134 
L 603 4134 
L 603 4863 
z
" transform="scale(0.015625)"/>
      <path id="DejaVuSans-70" d="M 1159 525 
L 1159 -1331 
L 581 -1331 
L 581 3500 
L 1159 3500 
L 1159 2969 
Q 1341 3281 1617 3432 
Q 1894 3584 2278 3584 
Q 2916 3584 3314 3078 
Q 3713 2572 3713 1747 
Q 3713 922 3314 415 
Q 2916 -91 2278 -91 
Q 1894 -91 1617 61 
Q 1341 213 1159 525 
z
M 3116 1747 
Q 3116 2381 2855 2742 
Q 2594 3103 2138 3103 
Q 1681 3103 1420 2742 
Q 1159 2381 1159 1747 
Q 1159 1113 1420 752 
Q 1681 391 2138 391 
Q 2594 391 2855 752 
Q 3116 1113 3116 1747 
z
" transform="scale(0.015625)"/>
     </defs>
     <use xlink:href="#DejaVuSans-43"/>
     <use xlink:href="#DejaVuSans-68" transform="translate(69.824219 0)"/>
     <use xlink:href="#DejaVuSans-49" transform="translate(133.203125 0)"/>
     <use xlink:href="#DejaVuSans-50" transform="translate(162.695312 0)"/>
     <use xlink:href="#DejaVuSans-2d" transform="translate(220.748047 0)"/>
     <use xlink:href="#DejaVuSans-63" transform="translate(256.832031 0)"/>
     <use xlink:href="#DejaVuSans-68" transform="translate(311.8125 0)"/>
     <use xlink:href="#DejaVuSans-69" transform="translate(375.191406 0)"/>
     <use xlink:href="#DejaVuSans-70" transform="translate(402.974609 0)"/>
    </g>
   </g>
  </g>
 </g>
 <defs>
  <clipPath id="pa6a2f9372f">
   <rect x="7.2" y="7.2" width="260.5794" height="234.508307"/>
  </clipPath>
 </defs>
</svg>
